HIERARCHY
ROOT Hips
{
    OFFSET 0.000000 0.000000 0.000000
    CHANNELS 6 Xposition Yposition Zposition Zrotation Xrotation Yrotation
    JOINT Spine
    {
        OFFSET -0.000000 0.083210 0.000000
        CHANNELS 3 Zrotation Xrotation Yrotation
        JOINT Spine1
        {
            OFFSET -0.000000 0.256334 0.000000
            CHANNELS 3 Zrotation Xrotation Yrotation
            JOINT Neck
            {
                OFFSET -0.000000 0.255281 0.023207
                CHANNELS 3 Zrotation Xrotation Yrotation
                JOINT Head
                {
                    OFFSET -0.000000 0.142065 -0.020295
                    CHANNELS 3 Zrotation Xrotation Yrotation
                    End Site
                    {
                        OFFSET -0.000000 0.202951 0.000000
                    }
                }
            }
            JOINT LeftShoulder
            {
                OFFSET 0.041044 0.235234 -0.000041
                CHANNELS 3 Zrotation Xrotation Yrotation
                JOINT LeftArm
                {
                    OFFSET 0.117964 0.000000 0.000000
                    CHANNELS 3 Zrotation Xrotation Yrotation
                    JOINT LeftForeArm
                    {
                        OFFSET 0.291248 0.000000 0.000000
                        CHANNELS 3 Zrotation Xrotation Yrotation
                        JOINT LeftHand
                        {
                            OFFSET 0.245673 0.000000 0.000000
                            CHANNELS 3 Zrotation Xrotation Yrotation
                            End Site
                            {
                                OFFSET 0.152213 0.000000 0.000000
                            }
                        }
                    }
                }
            }
            JOINT RightShoulder
            {
                OFFSET -0.040052 0.235234 -0.000041
                CHANNELS 3 Zrotation Xrotation Yrotation
                JOINT RightArm
                {
                    OFFSET -0.117964 0.000000 0.000000
                    CHANNELS 3 Zrotation Xrotation Yrotation
                    JOINT RightForeArm
                    {
                        OFFSET -0.291248 0.000000 0.000000
                        CHANNELS 3 Zrotation Xrotation Yrotation
                        JOINT RightHand
                        {
                            OFFSET -0.245673 0.000000 0.000000
                            CHANNELS 3 Zrotation Xrotation Yrotation
                            End Site
                            {
                                OFFSET -0.152213 0.000000 0.000000
                            }
                        }
                    }
                }
            }
        }
    }
    JOINT LeftUpLeg
    {
        OFFSET 0.101475 0.000000 0.000000
        CHANNELS 3 Zrotation Xrotation Yrotation
        JOINT LeftLeg
        {
            OFFSET -0.000000 -0.446535 0.000000
            CHANNELS 3 Zrotation Xrotation Yrotation
            JOINT LeftFoot
            {
                OFFSET -0.000000 -0.400037 0.000000
                CHANNELS 3 Zrotation Xrotation Yrotation
                JOINT LeftToeBase
                {
                    OFFSET -0.000000 -0.065959 0.152213
                    CHANNELS 3 Zrotation Xrotation Yrotation
                    End Site
                    {
                        OFFSET -0.000000 0.000000 0.040590
                    }
                }
            }
        }
    }
    JOINT RightUpLeg
    {
        OFFSET -0.101475 0.000000 0.000000
        CHANNELS 3 Zrotation Xrotation Yrotation
        JOINT RightLeg
        {
            OFFSET -0.000000 -0.446535 0.000000
            CHANNELS 3 Zrotation Xrotation Yrotation
            JOINT RightFoot
            {
                OFFSET -0.000000 -0.400037 0.000000
                CHANNELS 3 Zrotation Xrotation Yrotation
                JOINT RightToeBase
                {
                    OFFSET -0.000000 -0.065959 0.152213
                    CHANNELS 3 Zrotation Xrotation Yrotation
                    End Site
                    {
                        OFFSET -0.000000 0.000000 0.040590
                    }
                }
            }
        }
    }
}
MOTION
Frames:    6
Frame Time:    0.008333
0.526998    0.953141    0.449547    -1.046805    -0.647433    -91.082779    -1.083010    -0.908277    -0.410366    -1.596697    1.133320    -0.118478    -0.355478    9.053782    -1.851231    6.265488    -4.509720    -0.766527    15.406222    -3.390243    0.491259    -23.294926    -1.017314    7.739252    0.942896    2.147887    0.002418    9.789501    2.642196    5.771992    -13.813653    -2.964352    2.800553    25.634424    -0.246493    -6.344351    -3.432699    -0.075780    0.813682    -1.781552    0.074412    -8.110946    1.869156    4.809506    3.050198    -0.908311    3.341331    3.114225    -1.956822    -7.001371    2.987407    0.092581    1.336609    -0.950251    -4.445596    1.361220    4.687466    2.529991    9.790458    2.825239    1.581523    -10.919086    -6.967198    0.005784    -0.750279    0.179857    
0.526914    0.953143    0.449565    -1.045676    -0.650474    -91.078133    -1.073931    -0.910298    -0.407748    -1.616148    1.131436    -0.117204    -0.353413    9.030396    -1.856305    6.263721    -4.491666    -0.773159    15.422068    -3.393920    0.511334    -23.282566    -0.986701    7.729519    1.053831    2.242754    0.021660    9.035634    2.701811    5.812442    -13.813478    -2.949576    2.797862    25.614597    -0.261353    -6.338894    -3.434040    -0.069963    0.821881    -1.828198    0.082673    -8.108255    1.865828    4.810499    3.044046    -0.909168    3.346195    3.119256    -1.952343    -7.003883    2.983745    0.093266    1.335348    -0.957385    -4.450375    1.368739    4.697964    2.532762    9.782897    2.808489    1.584739    -10.914615    -6.965825    0.005835    -0.756106    0.181153    
0.526829    0.953136    0.449578    -1.044849    -0.653741    -91.072098    -1.066418    -0.914108    -0.404586    -1.631987    1.131672    -0.116285    -0.349108    9.011978    -1.860001    6.251081    -4.484955    -0.779863    15.429347    -3.395079    0.522191    -23.257719    -0.971575    7.725172    1.059289    2.243067    0.029497    8.916319    2.689614    5.731349    -13.813516    -2.922852    2.790722    25.587799    -0.291755    -6.321352    -3.430101    -0.059052    0.827990    -1.838036    0.096889    -8.131992    1.863479    4.810205    3.045631    -0.911202    3.353639    3.114463    -1.951990    -7.008956    2.979679    0.092817    1.338321    -0.952528    -4.455204    1.375208    4.707139    2.536353    9.780702    2.788959    1.586940    -10.915882    -6.960943    0.005910    -0.753369    0.183639    
0.526735    0.953133    0.449596    -1.046081    -0.655107    -91.064690    -1.056195    -0.918031    -0.401566    -1.647174    1.134882    -0.115024    -0.347254    8.995868    -1.865728    6.240960    -4.487225    -0.787606    15.434114    -3.399448    0.530897    -23.233082    -0.958578    7.722056    1.059182    2.257808    0.037424    8.910595    2.703639    5.726683    -13.816441    -2.899915    2.784216    25.567020    -0.309755    -6.302460    -3.440558    -0.038962    0.831575    -1.769934    0.110852    -8.159996    1.862613    4.812204    3.046345    -0.912438    3.362299    3.106351    -1.954198    -7.018028    2.979847    0.092885    1.337798    -0.953268    -4.459854    1.386673    4.722775    2.543467    9.772889    2.774897    1.584680    -10.912605    -6.967871    0.005793    -0.752599    0.180037    
0.526644    0.953131    0.449608    -1.047300    -0.655595    -91.056641    -1.045337    -0.923650    -0.399473    -1.663685    1.143238    -0.113687    -0.344140    8.972253    -1.869732    6.232216    -4.487587    -0.793511    15.444783    -3.418412    0.519050    -23.217649    -0.933737    7.754036    1.049089    2.268593    0.029386    9.126267    2.730414    5.790324    -13.823167    -2.875641    2.777411    25.550817    -0.341313    -6.280875    -3.437052    -0.024761    0.825369    -1.768296    0.120027    -8.149584    1.863396    4.812248    3.050244    -0.913965    3.374733    3.088866    -1.952928    -7.024731    2.984279    0.092835    1.335633    -0.952944    -4.461069    1.395820    4.731233    2.546068    9.770465    2.757057    1.587952    -10.912917    -6.965132    0.005707    -0.753949    0.177300    
0.526549    0.953128    0.449626    -1.048895    -0.656223    -91.047585    -1.036101    -0.928209    -0.395668    -1.674919    1.149684    -0.112571    -0.348199    8.953359    -1.876212    6.231166    -4.496144    -0.799666    15.442232    -3.419944    0.530303    -23.190813    -0.917132    7.743636    1.028666    2.238252    0.027371    9.199534    2.696310    5.696703    -13.826566    -2.848668    2.770388    25.524174    -0.378736    -6.263072    -3.425352    -0.025112    0.839962    -1.804804    0.136474    -8.166961    1.863683    4.812850    3.050695    -0.915636    3.386169    3.087080    -1.951795    -7.033478    2.975800    0.093235    1.343433    -0.956387    -4.463894    1.405676    4.740496    2.550439    9.768113    2.747263    1.586694    -10.912390    -6.972631    0.005768    -0.746208    0.179573    
